<svg xmlns="http://www.w3.org/2000/svg" width="93.437" height="102.387" viewBox="0 0 93.437 102.387">
  <g id="Group_649-3" data-name="Group 649-3" transform="translate(18.709 26.638)">
    <path id="Path_3859-8" data-name="Path 3859-8" d="M263.716,393.146a.715.715,0,0,0-.408.535,14.359,14.359,0,0,0-.51,3.161,2.571,2.571,0,0,0,.943,1.529c1.529,1.428,2.855,3.085,4.512,4.359a4.207,4.207,0,0,0,2.32.867c7.367.51,7.367.51,7.724-.663,1.071-4.487,1.1-4.589-.688-5.914-5.4-3.62-6.3-3.977-8.158-4.053-5.277-.051-5.277-.051-5.736.179" transform="translate(-246.499 -392.941)" fill="#466bff"/>
    <path id="Path_4681" data-name="Path 4681" d="M72.561,0H29.826A8.419,8.419,0,0,0,22.5,4.345L1.133,42.373a8.9,8.9,0,0,0,0,8.69L22.5,89.092a8.419,8.419,0,0,0,7.325,4.345H72.561a8.419,8.419,0,0,0,7.325-4.345l21.368-38.028a8.9,8.9,0,0,0,0-8.69L79.886,4.345A8.419,8.419,0,0,0,72.561,0Z" transform="translate(74.728 -26.638) rotate(90)" fill="none"/>
  </g>
</svg>
