<svg width="29" height="29" viewBox="0 0 29 29" fill="none" xmlns="http://www.w3.org/2000/svg">
<path d="M14.1204 4.84138e-06C11.5186 -0.00215021 8.96684 0.715194 6.74726 2.07274C4.52768 3.43028 2.72671 5.37515 1.54345 7.69234C0.360194 10.0095 -0.159269 12.6088 0.042489 15.2028C0.244247 17.7968 1.15937 20.2844 2.68669 22.3908L0.927429 27.6368L6.35252 25.9035C8.18977 27.1131 10.2843 27.8765 12.4689 28.1328C14.6536 28.3892 16.8679 28.1313 18.9353 27.3799C21.0026 26.6286 22.8657 25.4044 24.3759 23.8051C25.8861 22.2058 27.0017 20.2757 27.6335 18.1687C28.2653 16.0618 28.396 13.8363 28.015 11.6699C27.634 9.50351 26.752 7.45613 25.4393 5.69114C24.1265 3.92614 22.4195 2.49239 20.4542 1.50427C18.489 0.516157 16.3201 0.00103411 14.1204 4.84138e-06ZM22.336 19.9325C22.0508 20.4492 21.6543 20.8961 21.1751 21.2408C20.696 21.5855 20.1463 21.8195 19.5657 21.9257C18.8291 22.0817 17.8642 22.2146 14.6202 20.8626C11.7618 19.4643 9.33368 17.3206 7.5918 14.6576C6.63381 13.4298 6.05188 11.9509 5.91632 10.3995C5.89825 9.75715 6.01778 9.11831 6.2669 8.52591C6.51602 7.9335 6.88896 7.40123 7.3607 6.96481C7.75891 6.61627 8.27643 6.43514 8.80508 6.45928C8.97841 6.45928 9.13729 6.45928 9.27884 6.47372C9.69482 6.49105 9.90281 6.51705 10.1744 7.16991C10.5152 7.99032 11.3443 10.0153 11.4425 10.2233C11.5127 10.3369 11.5548 10.4656 11.5654 10.5988C11.5759 10.7319 11.5546 10.8656 11.5032 10.9889C11.3873 11.228 11.2331 11.4465 11.0468 11.6359C10.8388 11.8757 10.6394 12.0606 10.4315 12.3177C10.2235 12.5748 10.0241 12.7828 10.2668 13.1843C10.8873 14.2396 11.6591 15.1983 12.5576 16.0297C13.5225 16.9131 14.6458 17.606 15.8681 18.0721C16.0306 18.1496 16.2127 18.1762 16.3906 18.1484C16.5684 18.1205 16.7337 18.0396 16.8647 17.9161C17.2561 17.4526 17.6226 16.9685 17.9625 16.4659C18.0633 16.2982 18.223 16.1739 18.4104 16.1173C18.5978 16.0607 18.7995 16.0758 18.9764 16.1597C19.3577 16.2926 21.3741 17.2892 21.7901 17.4943C22.206 17.6994 22.4776 17.8006 22.5787 17.9768C22.6859 18.6385 22.6017 19.317 22.336 19.9325Z" fill="#1CC580"/>
</svg>
