<svg xmlns="http://www.w3.org/2000/svg" width="27.388" height="29.411" viewBox="0 0 27.388 29.411">
  <g id="Group_1180" data-name="Group 1180" transform="translate(0.504 0.499)">
    <g id="Group_1186" data-name="Group 1186" transform="translate(0 0)">
      <path id="Union_50" data-name="Union 50" d="M4.1,28.412a2.017,2.017,0,0,1-2.068-2.045c-.007-.66,0-1.32,0-2.021.7,0,1.367.007,2.034,0a.991.991,0,0,0,1-1.063.98.98,0,0,0-1-.948c-.573-.005-1.145,0-1.716,0q-.635,0-1.268,0a1.02,1.02,0,1,1-.063-2.039c.324-.01.65,0,1.007,0V8.122h.852c.4,0,.8,0,1.2-.005a1,1,0,0,0,.975-.78A.989.989,0,0,0,4.49,6.2,1.607,1.607,0,0,0,3.9,6.1c-.506-.006-1.012-.005-1.518,0-.435,0-.872,0-1.308,0A1.015,1.015,0,1,1,.988,4.063c.168-.006.335,0,.5,0h.543v-.4c0-.546-.006-1.092,0-1.637A2.017,2.017,0,0,1,4.07,0Q14.159,0,24.248,0a2.032,2.032,0,0,1,2.135,2.145q0,12.056,0,24.114a2.036,2.036,0,0,1-2.154,2.151H4.1Z" transform="translate(0 0)" fill="#fff" stroke="rgba(0,0,0,0)" stroke-miterlimit="10" stroke-width="1"/>
      <g id="Group_1185" data-name="Group 1185" transform="translate(8.154 6.148)">
        <g id="Group_1183" data-name="Group 1183" transform="translate(2.609 0)">
          <g id="Group_1159" data-name="Group 1159" transform="translate(0 0)">
            <g id="Group_1155" data-name="Group 1155" transform="translate(0 0)">
              <path id="Path_4273" data-name="Path 4273" d="M5.734,0H2.357a.668.668,0,0,0-.579.334L.09,3.259a.668.668,0,0,0,0,.668L1.778,6.852a.668.668,0,0,0,.579.334H5.734a.668.668,0,0,0,.579-.334L8,3.927a.668.668,0,0,0,0-.668L6.313.334A.668.668,0,0,0,5.734,0Z" transform="translate(7.186 0) rotate(90)" fill="#1cc580"/>
            </g>
          </g>
        </g>
        <g id="Group_1184" data-name="Group 1184" transform="translate(0 9.2)">
          <g id="Group_1159-2" data-name="Group 1159" transform="translate(0 0)">
            <g id="Group_1155-2" data-name="Group 1155">
              <path id="Subtraction_17" data-name="Subtraction 17" d="M12.4,6.917H0V4.068a1.155,1.155,0,0,1,.577-1L5.624.155a1.152,1.152,0,0,1,1.154,0L11.826,3.07a1.156,1.156,0,0,1,.577,1V6.916Z" fill="#1cc580"/>
            </g>
          </g>
        </g>
      </g>
    </g>
  </g>
</svg>
