<svg id="Group_649-3" data-name="Group 649-3" xmlns="http://www.w3.org/2000/svg" width="20.11" height="19.499" viewBox="0 0 20.11 19.499">
  <path id="Path_3855-8" data-name="Path 3855-8" d="M192.943,422.072a.666.666,0,0,0-.3.272c-1.088,1.853-1.088,1.853-.856,2.327,1.279,2.387,1.279,2.387,2,2.458,3.183.161,3.183.161,3.545-.423,1.269-2.216,1.269-2.216.735-2.8-1.773-1.753-1.924-1.894-2.72-1.914-2.216-.02-2.216-.02-2.407.081" transform="translate(-191.135 -419.926)" fill="#26b9fb"/>
  <path id="Path_3856-8" data-name="Path 3856-8" d="M186.439,502.442a1.253,1.253,0,0,0-.483.4c-1.853,2.538-1.853,2.538-1.622,3.223,1.168,3,1.168,3,2.034,3.092,3.495.252,3.495.252,3.968-.423,1.843-2.75,1.843-2.75,1.46-3.495-1.581-2.74-1.581-2.74-2.4-2.8-2.669-.141-2.669-.141-2.961,0" transform="translate(-184.229 -494.595)" fill="#1cc580"/>
  <path id="Path_3859-8" data-name="Path 3859-8" d="M263.152,393.022a.282.282,0,0,0-.161.212,5.672,5.672,0,0,0-.2,1.249,1.016,1.016,0,0,0,.373.6c.6.564,1.128,1.219,1.783,1.722a1.662,1.662,0,0,0,.917.342c2.911.2,2.911.2,3.052-.262.423-1.773.433-1.813-.272-2.337-2.135-1.43-2.488-1.571-3.223-1.6-2.085-.02-2.085-.02-2.266.071" transform="translate(-257.225 -392.941)" fill="#466bff"/>
  <path id="Path_3860-8" data-name="Path 3860-8" d="M280.406,460.482a.785.785,0,0,0-.372.362c-1.242,2.309-1.242,2.309-.9,2.9,1.722,2.807,1.722,2.807,2.465,2.9,3.3.3,3.3.3,3.639-.293,1.3-2.475,1.3-2.475.8-3.209-1.731-2.279-1.908-2.524-2.788-2.612-2.563-.186-2.563-.186-2.847-.039" transform="translate(-272.237 -455.605)" fill="#6e4cd4"/>
  <path id="Path_3861-8" data-name="Path 3861-8" d="M375.008,513.718a.788.788,0,0,0-.393.413c-1.319,2.729-1.319,2.729-.977,3.455,1.612,3.344,1.612,3.344,2.216,3.475,2.76.534,2.76.534,3.1-.04,1.36-2.518,1.36-2.518,1.027-3.435-1.178-2.8-1.39-3.273-2.216-3.505-2.427-.534-2.448-.514-2.76-.363" transform="translate(-360.057 -505.086)" fill="#ff6061"/>
  <path id="Path_3862-8" data-name="Path 3862-8" d="M275.515,557.16a1.35,1.35,0,0,0-.534.473c-1.924,2.941-1.924,2.941-1.581,3.727,1.571,3.294,1.571,3.294,2.417,3.384,3.394.282,3.394.282,3.848-.363,1.873-2.8,1.873-2.8,1.541-3.656-1.44-3.233-1.471-3.294-2.377-3.435-2.931-.312-2.931-.312-3.314-.131" transform="translate(-266.929 -545.426)" fill="#f8bf4d"/>
  <path id="Path_3864-8" data-name="Path 3864-8" d="M356.819,424.06a.361.361,0,0,0-.212.292,8.419,8.419,0,0,0-.373,1.642,1.372,1.372,0,0,0,.393.886c.635.755,1.168,1.6,1.873,2.307a1.889,1.889,0,0,0,.937.5,15,15,0,0,0,2.4.453.575.575,0,0,0,.594-.433c.494-2,.514-2.085-.111-2.85-1.974-2.176-2.307-2.407-3.042-2.558-2.206-.373-2.246-.353-2.458-.242" transform="translate(-344.064 -421.793)" fill="#ff64ff"/>
</svg>
