<svg xmlns="http://www.w3.org/2000/svg" width="16.875" height="34.289" viewBox="0 0 16.875 34.289">
  <g id="Group_1453" data-name="Group 1453" transform="translate(-186.941 -677.711)">
    <circle id="Ellipse_187" data-name="Ellipse 187" cx="7.5" cy="7.5" r="7.5" transform="translate(187.879 678.648)" fill="none" stroke="#466bff" stroke-miterlimit="10" stroke-width="1.875"/>
    <line id="Line_121" data-name="Line 121" y2="7.386" transform="translate(187.879 678.762)" fill="none" stroke="#26b9fb" stroke-linecap="round" stroke-miterlimit="10" stroke-width="1.861"/>
    <line id="Line_122" data-name="Line 122" y1="1.847" transform="translate(187.879 696.304)" fill="none" stroke="#26b9fb" stroke-linecap="round" stroke-miterlimit="10" stroke-width="1.861"/>
    <line id="Line_123" data-name="Line 123" y1="1.847" transform="translate(202.879 696.304)" fill="none" stroke="#26b9fb" stroke-linecap="round" stroke-miterlimit="10" stroke-width="1.861"/>
    <path id="Path_4125" data-name="Path 4125" d="M186.879,696.289a7.5,7.5,0,0,0,15,0" transform="translate(1 1.862)" fill="none" stroke="#26b9fb" stroke-linecap="round" stroke-miterlimit="10" stroke-width="1.861"/>
    <g id="Path_4126" data-name="Path 4126" transform="translate(1 1.862)" fill="none" stroke-miterlimit="10">
      <path d="M192.075,707.869a2.3,2.3,0,1,1,2.3,2.269A2.286,2.286,0,0,1,192.075,707.869Z" stroke="none"/>
      <path d="M 194.3789978027344 705.5999755859375 C 195.6510009765625 705.5999755859375 196.6829986572266 706.6160278320312 196.6829986572266 707.8690185546875 C 196.6829986572266 709.1220092773438 195.6510009765625 710.1380004882812 194.3789978027344 710.1380004882812 C 193.1060028076172 710.1380004882812 192.0749969482422 709.1220092773438 192.0749969482422 707.8690185546875 C 192.0749969482422 706.6160278320312 193.1060028076172 705.5999755859375 194.3789978027344 705.5999755859375 Z" stroke="none" fill="#26b9fb"/>
    </g>
  </g>
</svg>
