<svg id="Group_1262" data-name="Group 1262" xmlns="http://www.w3.org/2000/svg" width="36.269" height="41.711" viewBox="0 0 36.269 41.711">
  <path id="Union_59" data-name="Union 59" d="M9.411,41.711a6,6,0,0,1-6-6V31.139H2a2,2,0,0,1-2-2V28.9a2,2,0,0,1,2-2H3.412V22.976H2a2,2,0,0,1-2-2v-.242a2,2,0,0,1,2-2H3.412v-3.92H2a2,2,0,0,1-2-2v-.242a2,2,0,0,1,2-2H3.412V6a6,6,0,0,1,6-6H30.269a6,6,0,0,1,6,6V35.71a6,6,0,0,1-6,6Z" transform="translate(0)" fill="#fff"/>
  <g id="Group_1261" data-name="Group 1261" transform="translate(9.716 10.068)">
    <path id="Path_4439" data-name="Path 4439" d="M4.949,0H2.034a.577.577,0,0,0-.5.287L.077,2.8a.573.573,0,0,0,0,.575L1.535,5.89a.577.577,0,0,0,.5.287H4.949a.577.577,0,0,0,.5-.287L6.906,3.376a.573.573,0,0,0,0-.575L5.449.287A.577.577,0,0,0,4.949,0Z" transform="translate(16.322 11.771) rotate(90)" fill="#1cc580"/>
    <path id="Path_4440" data-name="Path 4440" d="M4.949,0H2.034a.577.577,0,0,0-.5.287L.077,2.8a.573.573,0,0,0,0,.575L1.535,5.89a.577.577,0,0,0,.5.287H4.949a.577.577,0,0,0,.5-.287L6.906,3.376a.573.573,0,0,0,0-.575L5.449.287A.577.577,0,0,0,4.949,0Z" transform="translate(19.7 5.91) rotate(90)" fill="#1cc580"/>
    <path id="Path_4444" data-name="Path 4444" d="M4.949,0H2.034a.577.577,0,0,0-.5.287L.077,2.8a.573.573,0,0,0,0,.575L1.535,5.89a.577.577,0,0,0,.5.287H4.949a.577.577,0,0,0,.5-.287L6.906,3.376a.573.573,0,0,0,0-.575L5.449.287A.577.577,0,0,0,4.949,0Z" transform="translate(9.61 0) rotate(90)" fill="#1cc580"/>
    <path id="Path_4445" data-name="Path 4445" d="M4.949,0H2.034a.577.577,0,0,0-.5.287L.077,2.8a.573.573,0,0,0,0,.575L1.535,5.89a.577.577,0,0,0,.5.287H4.949a.577.577,0,0,0,.5-.287L6.906,3.376a.573.573,0,0,0,0-.575L5.449.287A.577.577,0,0,0,4.949,0Z" transform="translate(9.551 11.774) rotate(90)" fill="#1cc580"/>
    <path id="Path_4446" data-name="Path 4446" d="M186.3,34.3V31.247a.457.457,0,0,0-.227-.4l-2.628-1.526a.451.451,0,0,0-.454,0l-2.628,1.526a.457.457,0,0,0-.227.4V34.3a.457.457,0,0,0,.227.4l2.628,1.526a.451.451,0,0,0,.454,0l2.628-1.526A.457.457,0,0,0,186.3,34.3Z" transform="translate(-173.364 -23.339)" fill="#1cc580"/>
    <path id="Path_4447" data-name="Path 4447" d="M4.949,0H2.034a.577.577,0,0,0-.5.287L.077,2.8a.573.573,0,0,0,0,.575L1.535,5.89a.577.577,0,0,0,.5.287H4.949a.577.577,0,0,0,.5-.287L6.906,3.376a.573.573,0,0,0,0-.575L5.449.287A.577.577,0,0,0,4.949,0Z" transform="translate(6.177 5.837) rotate(90)" fill="#1cc580"/>
    <path id="Path_4448" data-name="Path 4448" d="M4.949,0H2.034a.577.577,0,0,0-.5.287L.077,2.8a.573.573,0,0,0,0,.575L1.535,5.89a.577.577,0,0,0,.5.287H4.949a.577.577,0,0,0,.5-.287L6.906,3.376a.573.573,0,0,0,0-.575L5.449.287A.577.577,0,0,0,4.949,0Z" transform="translate(16.322 0.021) rotate(90)" fill="#1cc580"/>
  </g>
</svg>
