<svg xmlns="http://www.w3.org/2000/svg" width="93.437" height="102.387" viewBox="0 0 93.437 102.387">
  <g id="Group_1510" data-name="Group 1510" transform="translate(-41.693 -209.34)">
    <path id="Intersection_1" data-name="Intersection 1" d="M-5743.815,757.735l-32.952-19.025a7.544,7.544,0,0,0-3.764-1.007v-5.616a8.466,8.466,0,0,1,4.229,1.133l37.011,21.369a8.473,8.473,0,0,1,3.73,4.471l-4.982,2.526A7.551,7.551,0,0,0-5743.815,757.735Z" transform="translate(5868.692 -522.746)" fill="#ff64ff"/>
    <path id="Path_4680" data-name="Path 4680" d="M72.561,0H29.826A8.419,8.419,0,0,0,22.5,4.345L1.133,42.373a8.9,8.9,0,0,0,0,8.69L22.5,89.092a8.419,8.419,0,0,0,7.325,4.345H72.561a8.419,8.419,0,0,0,7.325-4.345l21.368-38.028a8.9,8.9,0,0,0,0-8.69L79.886,4.345A8.419,8.419,0,0,0,72.561,0Z" transform="translate(135.13 209.341) rotate(90)" fill="none"/>
  </g>
</svg>
