<svg xmlns="http://www.w3.org/2000/svg" width="93.437" height="102.387" viewBox="0 0 93.437 102.387">
  <g id="Group_649-3" data-name="Group 649-3" transform="translate(18.709 26.638)">
    <path id="Path_3855-8" data-name="Path 3855-8" d="M194.9,422.212a1.686,1.686,0,0,0-.765.688c-2.753,4.691-2.753,4.691-2.167,5.889,3.238,6.042,3.238,6.042,5.073,6.22,8.056.408,8.056.408,8.973-1.071,3.212-5.608,3.212-5.608,1.861-7.087-4.486-4.436-4.869-4.793-6.884-4.844-5.608-.051-5.608-.051-6.093.2" transform="translate(-188.114 -416.78)" fill="#26b9fb"/>
    <path id="Path_4681" data-name="Path 4681" d="M72.561,0H29.826A8.419,8.419,0,0,0,22.5,4.345L1.133,42.373a8.9,8.9,0,0,0,0,8.69L22.5,89.092a8.419,8.419,0,0,0,7.325,4.345H72.561a8.419,8.419,0,0,0,7.325-4.345l21.368-38.028a8.9,8.9,0,0,0,0-8.69L79.886,4.345A8.419,8.419,0,0,0,72.561,0Z" transform="translate(74.728 -26.638) rotate(90)" fill="none"/>
  </g>
</svg>
