<svg xmlns="http://www.w3.org/2000/svg" width="143" height="180.537" viewBox="0 0 143 180.537">
  <g id="Group_1122" data-name="Group 1122" transform="translate(-116 -205.61)">
    <path id="Path_3855-8" data-name="Path 3855-8" d="M129.085,282.532a4.005,4.005,0,0,0-1.819,1.637c-6.55,11.159-6.55,11.159-5.156,14.009,7.7,14.374,7.7,14.374,12.069,14.8,19.164.97,19.164.97,21.346-2.547,7.641-13.342,7.641-13.342,4.428-16.859-10.673-10.552-11.582-11.4-16.375-11.525-13.342-.122-13.342-.122-14.5.485" transform="translate(0 -64)" fill="#26b9fb"/>
    <path id="Path_3856-8" data-name="Path 3856-8" d="M131.511,316.857a7.554,7.554,0,0,0-2.912,2.425c-11.159,15.282-11.159,15.282-9.764,19.407,7.035,18.071,7.035,18.071,12.25,18.617,21.044,1.517,21.044,1.517,23.895-2.546,11.1-16.556,11.1-16.556,8.793-21.044-9.521-16.494-9.521-16.494-14.434-16.859-16.071-.85-16.071-.85-17.829,0" transform="translate(0 -64)" fill="#1cc580"/>
    <path id="Path_3857-8" data-name="Path 3857-8" d="M129.035,362.953a8.09,8.09,0,0,0-3.186,2.815c-10.819,16.314-10.819,16.314-8.843,21.254,8.458,18.5,8.458,18.5,13.513,19.187,19.056,1.667,19.056,1.667,21.912-2.355,11.149-16.494,11.149-16.494,9.227-21.083-8.567-18.842-8.567-18.842-13.345-19.418-17.3-1.379-17.3-1.379-19.275-.4" transform="translate(0 -64)" fill="#372667"/>
    <path id="Path_3859-8" data-name="Path 3859-8" d="M153.889,270.1a1.7,1.7,0,0,0-.97,1.274c-.3,2.484-1.455,4.851-1.213,7.52.061.606.426,1.941,2.244,3.639,3.638,3.4,6.792,7.338,10.73,10.37a10.007,10.007,0,0,0,5.519,2.062c17.527,1.213,17.527,1.213,18.376-1.577,2.547-10.673,2.607-10.916-1.638-14.07-12.857-8.612-14.979-9.461-19.406-9.642-12.554-.122-12.554-.122-13.645.426" transform="translate(0 -64)" fill="#466bff"/>
    <path id="Path_3860-8" data-name="Path 3860-8" d="M167.387,298.978a4.729,4.729,0,0,0-2.239,2.179c-7.48,13.9-7.48,13.9-5.419,17.434,10.366,16.9,10.366,16.9,14.842,17.435,19.85,1.825,19.85,1.825,21.911-1.767,7.833-14.9,7.833-14.9,4.829-19.319-10.424-13.723-11.485-15.2-16.791-15.726-15.431-1.119-15.431-1.119-17.14-.236" transform="translate(0 -64)" fill="#6e4cd4"/>
    <path id="Path_3861-8" data-name="Path 3861-8" d="M208.226,321.587a4.749,4.749,0,0,0-2.365,2.484c-7.949,16.435-7.949,16.435-5.883,20.8,9.7,20.133,9.7,20.133,13.343,20.922,16.616,3.215,16.616,3.215,18.679-.242,8.187-15.161,8.187-15.161,6.186-20.68-7.1-16.859-8.369-19.71-13.342-21.1-14.614-3.214-14.736-3.093-16.616-2.186" transform="translate(0 -64)" fill="#ff6061"/>
    <path id="Path_3862-8" data-name="Path 3862-8" d="M169.9,340.266a8.142,8.142,0,0,0-3.214,2.851c-11.583,17.709-11.583,17.709-9.521,22.439,9.459,19.831,9.459,19.831,14.555,20.376,20.437,1.7,20.437,1.7,23.166-2.186,11.28-16.859,11.28-16.859,9.278-22.013-8.672-19.468-8.854-19.831-14.307-20.681-17.648-1.88-17.648-1.88-19.953-.788" transform="translate(0 -64)" fill="#f8bf4d"/>
    <path id="Union_27" data-name="Union 27" d="M206.346,412.617c-3.577-.608-3.577-.608-10.007-18.62-1.516-4.427-1.516-4.427,9.7-21.589a7.4,7.4,0,0,1,3.032-2.79h0c2.244-1.093,2.244-1.093,16.677,2.06,4.489,1.274,4.852,3.457,7.58,20.619.547,4.913.547,4.913-10.006,19.408-1.286,1.68-1.873,2.448-4.486,2.447C216.644,414.155,213.022,413.613,206.346,412.617Z" transform="translate(0 -64)" fill="#281d4a"/>
    <path id="Path_3864-8" data-name="Path 3864-8" d="M195.005,283.261a2.175,2.175,0,0,0-1.274,1.758c-.667,3.336-2.243,6.429-2.243,9.886a8.255,8.255,0,0,0,2.365,5.336c3.82,4.549,7.034,9.643,11.28,13.89a11.373,11.373,0,0,0,5.639,3.033c4.852.849,9.459,2.669,14.434,2.729a3.462,3.462,0,0,0,3.577-2.607c2.972-12.068,3.093-12.554-.667-17.162-11.887-13.1-13.89-14.494-18.314-15.4-13.282-2.243-13.524-2.122-14.8-1.455" transform="translate(0 -64)" fill="#ff64ff"/>
    <path id="Path_3865-8" data-name="Path 3865-8" d="M235.272,308.873a2.12,2.12,0,0,0-.942,1.805c-.529,3.9-1.766,7.623-1.766,11.639a13.594,13.594,0,0,0,1.766,6c2.765,5.528,4.825,11.406,7.885,16.759a8.589,8.589,0,0,0,3.707,3.783c3,1.455,5.65,3.841,8.942,4.54,1.59.349,2.119-1.455,2.3-2.1,2.235-10.3,2.53-11.581.353-17.575-6.061-14.316-8.473-18.565-11.651-20.66-8.3-4.481-9.651-4.714-10.593-4.19" transform="translate(0 -64)" fill="#372667"/>
    <path id="Path_3867-8" data-name="Path 3867-8" d="M203.435,415.466a8.275,8.275,0,0,0-2.972,2.483c-10.673,14.374-10.673,14.374-9.278,18.012,5.4,13.1,5.4,13.1,8.369,13.464,10.795,1.093,10.795,1.093,12.618-1.031,9.218-11.1,9.218-11.1,9.459-14.737,0-13.828,0-15.95-3.7-16.921-12.372-2.3-12.372-2.3-14.494-1.273" transform="translate(0 -64)" fill="#372667"/>
    <path id="Path_3868-8" data-name="Path 3868-8" d="M235.819,399.393a5.756,5.756,0,0,0-2.3,2.3c-9.582,14.495-9.582,14.495-9.339,18.5.242,4.488-.182,9.036.363,13.524.243,2.185,1.032,2.85,1.638,3.152a51.063,51.063,0,0,1,4.609,2.73,1.276,1.276,0,0,0,.426.181c1.032.122,2.244-1.334,2.669-1.819,8.735-10.977,8.735-10.977,9.946-15.466,3.335-15.466,3.279-17.951,1.274-19.528-7.521-4.548-7.883-4.366-9.28-3.577" transform="translate(0 -64)" fill="#372667"/>
  </g>
</svg>
